<svg xmlns="http://www.w3.org/2000/svg" xmlns:xlink="http://www.w3.org/1999/xlink" width="1024" zoomAndPan="magnify" viewBox="0 0 768 767.999994" height="1024" preserveAspectRatio="xMidYMid meet" version="1.0"><path fill="#ffffff" d="M 401.367188 767.984375 C 403.808594 767.289062 405.902344 766.242188 408.347656 764.84375 L 681.742188 609.078125 C 714.210938 590.570312 731.671875 571.710938 731.671875 521.070312 L 731.671875 249.011719 C 731.671875 238.53125 730.96875 230.152344 728.875 222.46875 L 401.367188 409.664062 Z M 353.53125 767.984375 L 353.53125 409.664062 L 26.019531 222.46875 C 23.921875 230.152344 23.226562 238.53125 23.226562 249.011719 L 23.226562 521.070312 C 23.226562 571.710938 41.03125 590.570312 73.15625 609.078125 L 346.894531 764.84375 C 348.992188 766.242188 351.085938 767.289062 353.53125 767.984375 Z M 377.621094 367.753906 L 526.710938 283.234375 L 196.058594 94.296875 L 67.917969 167.289062 C 60.234375 171.476562 53.953125 175.667969 48.363281 180.90625 Z M 575.246094 255.644531 L 706.527344 180.90625 C 701.292969 175.667969 695.007812 171.476562 687.324219 167.289062 L 440.820312 26.890625 C 419.523438 14.667969 398.222656 8.03125 377.621094 8.03125 C 356.671875 8.03125 335.375 14.667969 314.074219 26.890625 L 243.195312 67.054688 Z M 575.246094 255.644531 " fill-opacity="0.85" fill-rule="nonzero"/></svg>